<?xml version="1.0" encoding="utf-8"?>
<!-- Generator: Adobe Illustrator 25.0.1, SVG Export Plug-In . SVG Version: 6.00 Build 0)  -->
<svg version="1.1" id="Layer_1" xmlns="http://www.w3.org/2000/svg" xmlns:xlink="http://www.w3.org/1999/xlink" x="0px" y="0px"
	 viewBox="0 0 15.1 15.1" style="enable-background:new 0 0 15.1 15.1;" xml:space="preserve">
<style type="text/css">
	.st0{fill:#FFFFFF;}
</style>
<path class="st0" d="M0.57,13.15c-0.5,0.46-0.51,0.93-0.03,1.42s0.95,0.47,1.42-0.03L7.55,9l5.6,5.54c0.46,0.5,0.93,0.51,1.42,0.03
	c0.48-0.48,0.47-0.95-0.03-1.42L9,7.55l5.54-5.6c0.5-0.46,0.51-0.93,0.03-1.42c-0.48-0.48-0.95-0.47-1.42,0.03L7.55,6.1l-5.6-5.54
	c-0.46-0.5-0.93-0.51-1.42-0.03C0.05,1.02,0.06,1.49,0.57,1.95l5.54,5.6L0.57,13.15z"/>
</svg>
