<?xml version="1.0" encoding="utf-8"?>
<!-- Generator: Adobe Illustrator 25.0.1, SVG Export Plug-In . SVG Version: 6.00 Build 0)  -->
<svg version="1.1" id="Layer_1" xmlns="http://www.w3.org/2000/svg" xmlns:xlink="http://www.w3.org/1999/xlink" x="0px" y="0px"
	 viewBox="0 0 21.37 22.4" style="enable-background:new 0 0 21.37 22.4;" xml:space="preserve">
<style type="text/css">
	.st0{fill:#FFFFFF;}
</style>
<path class="st0" d="M8.78,16.25c1.04,0,2-0.2,2.89-0.59c0.91-0.39,1.7-0.93,2.38-1.6c0.67-0.67,1.21-1.46,1.6-2.38
	c0.39-0.89,0.59-1.85,0.59-2.89c0-1.04-0.2-2-0.59-2.89c-0.39-0.91-0.93-1.7-1.6-2.38c-0.67-0.67-1.46-1.21-2.38-1.6
	c-0.89-0.39-1.85-0.59-2.89-0.59s-2,0.2-2.89,0.59c-0.91,0.39-1.7,0.93-2.38,1.6C2.84,4.2,2.31,5,1.92,5.91
	C1.52,6.8,1.33,7.76,1.33,8.79c0,1.04,0.2,2,0.59,2.89c0.39,0.91,0.93,1.7,1.6,2.38c0.67,0.67,1.46,1.21,2.38,1.6
	C6.78,16.05,7.74,16.25,8.78,16.25z M13.69,15.69c-0.7,0.48-1.47,0.85-2.3,1.13c-0.83,0.28-1.7,0.42-2.61,0.42
	c-1.16,0-2.26-0.22-3.29-0.65c-1.01-0.46-1.9-1.07-2.67-1.83s-1.38-1.66-1.83-2.67c-0.43-1.04-0.65-2.13-0.65-3.29
	S0.55,6.54,0.98,5.5c0.46-1.01,1.07-1.9,1.83-2.67S4.47,1.46,5.49,1c1.04-0.43,2.13-0.65,3.29-0.65c1.16,0,2.26,0.22,3.29,0.65
	c1.01,0.46,1.9,1.07,2.67,1.83c0.77,0.77,1.38,1.66,1.83,2.67c0.43,1.04,0.65,2.13,0.65,3.29s-0.22,2.25-0.67,3.28
	c-0.45,1.02-1.05,1.92-1.82,2.69l5.96,5.96c0.14,0.14,0.22,0.31,0.22,0.5c0,0.19-0.07,0.35-0.22,0.5c-0.14,0.14-0.31,0.22-0.5,0.22
	c-0.19,0-0.35-0.07-0.5-0.22L13.69,15.69z"/>
</svg>
